<svg xmlns="http://www.w3.org/2000/svg" xmlns:xlink="http://www.w3.org/1999/xlink" width="500" zoomAndPan="magnify" viewBox="0 0 375 374.999991" height="500" preserveAspectRatio="xMidYMid meet" version="1.0"><defs><clipPath id="f80c444f0a"><path d="M 37.5 37.5 L 337.5 37.5 L 337.5 337.5 L 37.5 337.5 Z M 37.5 37.5 " clip-rule="nonzero"/></clipPath></defs><g clip-path="url(#f80c444f0a)"><path fill="#000000" d="M 187.476562 37.488281 C 104.636719 37.488281 37.488281 104.636719 37.488281 187.476562 C 37.488281 270.3125 104.636719 337.460938 187.476562 337.460938 C 270.3125 337.460938 337.460938 270.3125 337.460938 187.476562 C 337.460938 104.636719 270.3125 37.488281 187.476562 37.488281 Z M 187.476562 79.484375 C 217.300781 79.484375 241.472656 103.660156 241.472656 133.484375 C 241.472656 163.308594 217.300781 187.480469 187.476562 187.480469 C 157.648438 187.480469 133.476562 163.304688 133.476562 133.484375 C 133.476562 103.664062 157.648438 79.484375 187.476562 79.484375 Z M 187.476562 301.472656 C 149.140625 301.472656 115.308594 282.492188 94.640625 253.476562 C 115.308594 224.464844 149.140625 205.484375 187.476562 205.484375 C 225.8125 205.484375 259.640625 224.464844 280.308594 253.476562 C 259.640625 282.492188 225.8125 301.472656 187.476562 301.472656 Z M 187.476562 301.472656 " fill-opacity="1" fill-rule="nonzero"/></g></svg>