<svg xmlns="http://www.w3.org/2000/svg" xmlns:xlink="http://www.w3.org/1999/xlink" width="500" zoomAndPan="magnify" viewBox="0 0 375 374.999991" height="500" preserveAspectRatio="xMidYMid meet" version="1.0"><defs><clipPath id="1497fbdbf4"><path d="M 57.5625 37.5 L 317.8125 37.5 L 317.8125 337.5 L 57.5625 337.5 Z M 57.5625 37.5 " clip-rule="nonzero"/></clipPath></defs><g clip-path="url(#1497fbdbf4)"><path fill="#000000" d="M 197.695312 257.441406 C 197.695312 251.933594 202.113281 247.472656 207.730469 247.472656 L 307.777344 247.472656 C 313.320312 247.472656 317.8125 251.933594 317.8125 257.441406 L 317.8125 327.457031 C 317.8125 332.964844 313.394531 337.429688 307.777344 337.429688 L 207.730469 337.429688 C 202.191406 337.429688 197.695312 332.96875 197.695312 327.457031 Z M 197.695312 47.515625 C 197.695312 42.023438 202.113281 37.570312 207.730469 37.570312 L 307.777344 37.570312 C 313.320312 37.570312 317.8125 42.078125 317.8125 47.515625 L 317.8125 217.539062 C 317.8125 223.027344 313.394531 227.480469 307.777344 227.480469 L 207.730469 227.480469 C 202.191406 227.480469 197.695312 222.972656 197.695312 217.539062 Z M 57.5625 157.460938 C 57.5625 151.972656 61.980469 147.519531 67.597656 147.519531 L 167.644531 147.519531 C 173.183594 147.519531 177.679688 152.027344 177.679688 157.460938 L 177.679688 327.484375 C 177.679688 332.976562 173.261719 337.429688 167.644531 337.429688 L 67.597656 337.429688 C 62.054688 337.429688 57.5625 332.921875 57.5625 327.484375 Z M 57.5625 47.542969 C 57.5625 42.035156 61.980469 37.570312 67.597656 37.570312 L 167.644531 37.570312 C 173.183594 37.570312 177.679688 42.03125 177.679688 47.542969 L 177.679688 117.558594 C 177.679688 123.066406 173.261719 127.527344 167.644531 127.527344 L 67.597656 127.527344 C 62.054688 127.527344 57.5625 123.066406 57.5625 117.558594 Z M 57.5625 47.542969 " fill-opacity="1" fill-rule="evenodd"/></g></svg>