<svg xmlns="http://www.w3.org/2000/svg" xmlns:xlink="http://www.w3.org/1999/xlink" width="500" zoomAndPan="magnify" viewBox="0 0 375 374.999991" height="500" preserveAspectRatio="xMidYMid meet" version="1.0"><defs><clipPath id="a510667a72"><path d="M 87 84 L 337.5 84 L 337.5 334.5 L 87 334.5 Z M 87 84 " clip-rule="nonzero"/></clipPath><clipPath id="f23f362821"><path d="M 40 37.5 L 259 37.5 L 259 255 L 40 255 Z M 40 37.5 " clip-rule="nonzero"/></clipPath></defs><g clip-path="url(#a510667a72)"><path fill="#000000" d="M 333.296875 180.75 L 305.6875 178.046875 C 304.289062 173.847656 302.589844 169.84375 300.585938 165.84375 L 318.195312 144.4375 C 319.695312 142.636719 319.492188 140.035156 317.894531 138.433594 L 283.582031 104.121094 C 283.382812 103.921875 283.183594 103.722656 282.882812 103.523438 C 282.78125 103.421875 282.683594 103.421875 282.582031 103.421875 C 282.382812 103.324219 282.28125 103.222656 282.082031 103.121094 C 281.980469 103.121094 281.882812 103.023438 281.78125 103.023438 C 281.582031 102.921875 281.480469 102.921875 281.28125 102.921875 C 281.179688 102.921875 281.082031 102.921875 280.882812 102.921875 C 280.679688 102.921875 280.582031 102.921875 280.382812 102.921875 C 280.28125 102.921875 280.082031 102.921875 279.980469 102.921875 C 279.878906 102.921875 279.78125 102.921875 279.679688 102.921875 C 279.480469 102.921875 279.378906 103.023438 279.179688 103.023438 C 279.082031 103.023438 278.980469 103.023438 278.878906 103.121094 C 278.679688 103.222656 278.582031 103.222656 278.378906 103.324219 C 278.28125 103.324219 278.179688 103.421875 278.179688 103.421875 C 277.980469 103.523438 277.679688 103.722656 277.480469 103.921875 L 256.171875 121.328125 C 252.273438 119.328125 248.171875 117.726562 243.96875 116.226562 L 241.269531 88.617188 C 241.066406 86.316406 239.066406 84.515625 236.765625 84.515625 L 188.25 84.515625 C 185.949219 84.515625 183.949219 86.316406 183.75 88.617188 L 181.046875 116.226562 C 179.148438 116.828125 177.246094 117.628906 175.347656 118.328125 C 175.046875 119.628906 174.644531 120.929688 174.246094 122.328125 L 206.457031 154.539062 C 207.855469 154.4375 209.15625 154.339844 210.558594 154.238281 C 211.257812 154.238281 211.859375 154.238281 212.558594 154.238281 C 243.070312 154.238281 267.875 179.046875 267.875 209.558594 C 267.875 210.457031 267.875 211.359375 267.777344 212.160156 C 267.777344 212.457031 267.777344 212.757812 267.777344 213.058594 C 267.777344 213.660156 267.675781 214.257812 267.675781 214.859375 C 267.675781 215.160156 267.578125 215.460938 267.578125 215.859375 C 267.476562 216.660156 267.375 217.359375 267.277344 218.160156 C 267.175781 218.660156 267.078125 219.0625 267.078125 219.5625 C 266.976562 219.859375 266.976562 220.160156 266.875 220.5625 C 266.777344 221.0625 266.675781 221.660156 266.578125 222.160156 C 266.578125 222.363281 266.476562 222.460938 266.476562 222.664062 C 265.675781 226.0625 264.574219 229.363281 263.074219 232.566406 C 257.574219 244.769531 247.769531 254.574219 235.566406 260.175781 C 232.363281 261.675781 229.0625 262.777344 225.664062 263.574219 C 225.460938 263.574219 225.363281 263.675781 225.164062 263.675781 C 224.664062 263.777344 224.0625 263.875 223.5625 263.976562 C 223.261719 264.074219 222.960938 264.074219 222.5625 264.175781 C 222.0625 264.277344 221.660156 264.375 221.160156 264.375 C 220.460938 264.476562 219.660156 264.574219 218.859375 264.675781 C 218.558594 264.675781 218.261719 264.777344 217.859375 264.777344 C 217.261719 264.875 216.660156 264.875 216.058594 264.875 C 215.757812 264.875 215.460938 264.875 215.160156 264.875 C 214.257812 264.875 213.457031 264.976562 212.558594 264.976562 C 182.046875 264.976562 157.238281 240.167969 157.238281 209.65625 C 157.238281 208.65625 157.238281 207.558594 157.339844 206.558594 C 157.339844 206.355469 157.339844 206.15625 157.339844 205.957031 C 157.441406 205.15625 157.441406 204.355469 157.539062 203.554688 L 125.328125 171.34375 C 124.027344 171.746094 122.726562 172.046875 121.328125 172.445312 C 121.328125 172.445312 121.328125 172.546875 121.226562 172.546875 C 120.929688 173.445312 120.527344 174.246094 120.226562 175.144531 C 119.828125 176.148438 119.527344 177.148438 119.128906 178.148438 L 91.519531 180.847656 C 89.21875 181.046875 87.417969 183.050781 87.417969 185.351562 L 87.417969 233.867188 C 87.417969 236.167969 89.21875 238.167969 91.519531 238.367188 L 119.128906 241.066406 C 120.527344 245.269531 122.226562 249.269531 124.230469 253.273438 L 106.621094 274.679688 C 105.121094 276.480469 105.324219 279.082031 106.921875 280.679688 L 141.234375 314.992188 C 141.433594 315.191406 141.632812 315.394531 141.933594 315.59375 C 142.035156 315.691406 142.136719 315.691406 142.234375 315.691406 C 142.433594 315.792969 142.535156 315.894531 142.734375 315.992188 C 142.835938 315.992188 142.933594 316.09375 143.035156 316.09375 C 143.234375 316.195312 143.335938 316.195312 143.535156 316.195312 C 143.636719 316.195312 143.734375 316.195312 143.933594 316.195312 C 144.136719 316.195312 144.234375 316.195312 144.4375 316.195312 C 144.535156 316.195312 144.734375 316.195312 144.835938 316.195312 C 144.9375 316.195312 145.035156 316.195312 145.136719 316.195312 C 145.335938 316.195312 145.4375 316.09375 145.636719 316.09375 C 145.734375 316.09375 145.835938 316.09375 145.9375 315.992188 C 146.136719 315.894531 146.234375 315.894531 146.4375 315.792969 C 146.535156 315.792969 146.636719 315.691406 146.636719 315.691406 C 146.835938 315.59375 147.136719 315.394531 147.335938 315.191406 L 168.742188 297.585938 C 172.746094 299.585938 176.746094 301.289062 180.949219 302.6875 L 183.648438 330.296875 C 183.847656 332.597656 185.847656 334.398438 188.148438 334.398438 L 236.667969 334.398438 C 238.96875 334.398438 240.96875 332.597656 241.167969 330.296875 L 243.867188 302.6875 C 248.070312 301.289062 252.171875 299.585938 256.074219 297.585938 L 277.480469 315.191406 C 277.679688 315.394531 277.878906 315.492188 278.179688 315.691406 C 278.28125 315.691406 278.378906 315.792969 278.378906 315.792969 C 278.582031 315.894531 278.679688 315.992188 278.878906 315.992188 C 278.980469 315.992188 279.082031 316.09375 279.179688 316.09375 C 279.378906 316.09375 279.480469 316.195312 279.679688 316.195312 C 279.78125 316.195312 279.878906 316.195312 279.980469 316.195312 C 280.082031 316.195312 280.28125 316.195312 280.382812 316.195312 C 280.582031 316.195312 280.679688 316.195312 280.882812 316.195312 C 280.980469 316.195312 281.082031 316.195312 281.28125 316.195312 C 281.480469 316.195312 281.582031 316.09375 281.78125 316.09375 C 281.882812 316.09375 281.980469 315.992188 282.082031 315.992188 C 282.28125 315.894531 282.382812 315.792969 282.582031 315.691406 C 282.683594 315.691406 282.78125 315.59375 282.882812 315.59375 C 283.082031 315.394531 283.382812 315.292969 283.582031 314.992188 L 317.894531 280.679688 C 319.492188 279.082031 319.695312 276.480469 318.195312 274.679688 L 300.6875 253.171875 C 302.6875 249.171875 304.390625 245.167969 305.789062 240.96875 L 333.398438 238.265625 C 335.699219 238.066406 337.5 236.066406 337.5 233.765625 L 337.5 185.25 C 337.398438 182.949219 335.597656 180.949219 333.296875 180.75 Z M 333.296875 180.75 " fill-opacity="1" fill-rule="nonzero"/></g><g clip-path="url(#f23f362821)"><path fill="#000000" d="M 61.609375 148.636719 C 61.808594 148.835938 62.007812 148.9375 62.109375 149.136719 C 62.808594 149.738281 63.410156 150.339844 64.109375 150.839844 C 64.207031 150.839844 64.207031 150.9375 64.308594 150.9375 C 65.007812 151.539062 65.808594 152.140625 66.507812 152.640625 C 66.710938 152.738281 66.910156 152.9375 67.109375 153.039062 C 67.808594 153.539062 68.410156 154.039062 69.109375 154.4375 C 69.210938 154.539062 69.3125 154.539062 69.410156 154.640625 C 70.210938 155.140625 70.910156 155.640625 71.710938 156.140625 C 71.910156 156.238281 72.113281 156.441406 72.410156 156.539062 C 73.113281 156.941406 73.710938 157.339844 74.414062 157.640625 C 74.613281 157.742188 74.710938 157.839844 74.914062 157.941406 C 75.710938 158.339844 76.511719 158.742188 77.3125 159.140625 C 77.613281 159.242188 77.8125 159.339844 78.113281 159.542969 C 78.714844 159.839844 79.414062 160.140625 80.015625 160.339844 C 80.214844 160.441406 80.414062 160.542969 80.714844 160.640625 C 81.515625 160.941406 82.316406 161.242188 83.113281 161.542969 C 83.414062 161.640625 83.714844 161.742188 84.015625 161.84375 C 84.617188 162.042969 85.214844 162.242188 85.816406 162.441406 C 86.117188 162.542969 86.417969 162.640625 86.617188 162.742188 C 87.417969 162.941406 88.21875 163.242188 89.015625 163.441406 C 89.316406 163.542969 89.71875 163.640625 90.015625 163.640625 C 90.617188 163.742188 91.117188 163.941406 91.71875 164.042969 C 92.019531 164.144531 92.417969 164.144531 92.71875 164.242188 C 93.519531 164.34375 94.320312 164.542969 95.019531 164.644531 C 95.417969 164.742188 95.820312 164.742188 96.121094 164.84375 C 96.621094 164.941406 97.121094 164.941406 97.621094 165.042969 C 98.019531 165.042969 98.421875 165.144531 98.820312 165.144531 C 99.621094 165.242188 100.320312 165.242188 101.121094 165.34375 C 101.519531 165.34375 101.921875 165.34375 102.421875 165.34375 C 102.921875 165.34375 103.320312 165.34375 103.820312 165.34375 C 104.320312 165.34375 104.722656 165.34375 105.222656 165.34375 C 105.324219 165.34375 105.421875 165.34375 105.523438 165.34375 C 107.421875 165.34375 109.425781 165.242188 111.324219 164.941406 C 111.425781 164.941406 111.523438 164.941406 111.625 164.941406 C 112.226562 164.84375 112.824219 164.84375 113.425781 164.742188 C 113.625 164.742188 113.726562 164.742188 113.925781 164.644531 C 114.527344 164.542969 115.125 164.441406 115.726562 164.34375 C 115.824219 164.34375 116.027344 164.34375 116.125 164.242188 C 118.125 163.84375 120.128906 163.441406 122.128906 162.84375 C 123.128906 162.542969 124.128906 162.242188 125.128906 161.941406 C 126.03125 161.640625 127.03125 161.242188 128.03125 160.941406 L 160.039062 192.953125 L 203.355469 236.265625 L 221.960938 254.871094 C 225.363281 254.171875 228.664062 253.171875 231.863281 251.671875 C 242.066406 247.070312 250.269531 238.867188 254.972656 228.5625 C 256.371094 225.363281 257.472656 222.0625 258.171875 218.660156 L 164.242188 124.730469 C 164.640625 123.828125 164.941406 122.828125 165.242188 121.828125 C 165.542969 120.828125 165.84375 119.828125 166.144531 118.828125 C 168.84375 109.125 169.242188 99.222656 167.542969 89.71875 C 167.542969 89.617188 167.542969 89.617188 167.542969 89.519531 C 167.441406 88.917969 167.34375 88.417969 167.144531 87.816406 C 167.144531 87.71875 167.042969 87.617188 167.042969 87.417969 C 166.941406 86.917969 166.84375 86.316406 166.644531 85.816406 C 166.644531 85.617188 166.542969 85.515625 166.542969 85.316406 C 166.441406 84.816406 166.242188 84.316406 166.144531 83.816406 C 166.042969 83.617188 166.042969 83.414062 165.941406 83.214844 C 165.84375 82.714844 165.644531 82.316406 165.542969 81.816406 C 165.441406 81.613281 165.441406 81.414062 165.34375 81.113281 C 165.242188 80.714844 165.042969 80.214844 164.84375 79.816406 C 164.742188 79.613281 164.640625 79.3125 164.542969 79.113281 C 164.34375 78.714844 164.242188 78.3125 164.042969 77.914062 C 163.941406 77.613281 163.84375 77.414062 163.742188 77.113281 C 163.542969 76.714844 163.441406 76.3125 163.242188 75.914062 C 163.140625 75.613281 163.042969 75.414062 162.839844 75.113281 C 162.640625 74.710938 162.542969 74.3125 162.339844 74.011719 C 162.242188 73.710938 162.042969 73.511719 161.941406 73.210938 C 161.742188 72.8125 161.542969 72.511719 161.441406 72.113281 C 161.339844 71.8125 161.140625 71.511719 160.941406 71.3125 C 160.742188 71.011719 160.542969 70.613281 160.339844 70.3125 C 160.140625 70.011719 160.039062 69.710938 159.839844 69.410156 C 159.640625 69.109375 159.441406 68.710938 159.242188 68.410156 C 159.039062 68.109375 158.839844 67.8125 158.640625 67.511719 C 158.441406 67.210938 158.238281 66.910156 158.039062 66.609375 C 157.839844 66.308594 157.640625 66.011719 157.441406 65.710938 C 157.238281 65.410156 157.039062 65.109375 156.839844 64.808594 C 156.640625 64.507812 156.441406 64.210938 156.140625 63.910156 C 155.9375 63.609375 155.738281 63.308594 155.539062 63.109375 C 155.339844 62.808594 155.039062 62.507812 154.839844 62.207031 C 154.640625 61.910156 154.4375 61.707031 154.238281 61.410156 C 153.9375 61.109375 153.738281 60.707031 153.4375 60.40625 C 153.238281 60.207031 153.039062 59.90625 152.839844 59.707031 C 152.539062 59.308594 152.238281 59.007812 151.839844 58.609375 C 151.636719 58.40625 151.539062 58.207031 151.335938 58.007812 C 150.835938 57.507812 150.335938 56.90625 149.835938 56.40625 C 149.136719 55.707031 148.4375 55.105469 147.738281 54.40625 C 147.535156 54.207031 147.4375 54.105469 147.238281 53.90625 C 146.535156 53.304688 145.835938 52.707031 145.136719 52.105469 C 145.035156 52.003906 145.035156 52.003906 144.9375 51.90625 C 144.234375 51.40625 143.535156 50.804688 142.933594 50.304688 C 142.734375 50.203125 142.636719 50.003906 142.433594 49.90625 C 141.734375 49.40625 140.933594 48.804688 140.132812 48.304688 C 140.035156 48.203125 139.933594 48.203125 139.835938 48.105469 C 139.132812 47.605469 138.433594 47.203125 137.734375 46.804688 C 137.535156 46.703125 137.433594 46.605469 137.234375 46.503906 C 136.433594 46.003906 135.632812 45.601562 134.832031 45.203125 C 134.730469 45.101562 134.53125 45.003906 134.433594 45.003906 C 133.730469 44.601562 133.03125 44.304688 132.332031 43.902344 C 132.132812 43.800781 132.03125 43.703125 131.832031 43.703125 C 131.03125 43.300781 130.230469 43.003906 129.332031 42.601562 C 129.128906 42.503906 128.929688 42.503906 128.832031 42.402344 C 128.128906 42.101562 127.328125 41.800781 126.628906 41.5 C 126.53125 41.402344 126.328125 41.402344 126.230469 41.300781 C 125.328125 41 124.527344 40.703125 123.628906 40.5 C 123.429688 40.402344 123.230469 40.402344 123.027344 40.300781 C 122.226562 40.101562 121.429688 39.800781 120.628906 39.601562 C 120.527344 39.601562 120.425781 39.5 120.328125 39.5 C 119.425781 39.300781 118.527344 39.101562 117.625 38.902344 C 117.425781 38.902344 117.226562 38.800781 117.027344 38.800781 C 116.125 38.601562 115.324219 38.5 114.425781 38.300781 C 114.425781 38.300781 114.324219 38.300781 114.324219 38.300781 C 113.425781 38.199219 112.523438 38.101562 111.625 38 C 111.425781 38 111.222656 38 111.023438 37.902344 C 110.125 37.800781 109.222656 37.699219 108.324219 37.699219 C 108.222656 37.699219 108.222656 37.699219 108.125 37.699219 C 107.222656 37.699219 106.324219 37.601562 105.523438 37.601562 C 105.222656 37.601562 105.023438 37.601562 104.722656 37.601562 C 104.421875 37.601562 104.121094 37.601562 103.820312 37.601562 C 103.421875 37.601562 103.121094 37.601562 102.722656 37.601562 C 102.421875 37.601562 102.121094 37.601562 101.820312 37.601562 C 101.421875 37.601562 101.121094 37.601562 100.722656 37.699219 C 100.421875 37.699219 100.121094 37.699219 99.820312 37.800781 C 99.421875 37.800781 99.121094 37.902344 98.71875 37.902344 C 98.421875 37.902344 98.121094 38 97.820312 38 C 97.417969 38 97.019531 38.101562 96.71875 38.101562 C 96.417969 38.101562 96.121094 38.199219 95.917969 38.199219 C 95.519531 38.300781 95.117188 38.300781 94.71875 38.402344 C 94.417969 38.402344 94.21875 38.5 93.917969 38.5 C 93.519531 38.601562 93.019531 38.699219 92.617188 38.800781 C 92.417969 38.800781 92.21875 38.902344 91.917969 38.902344 C 91.21875 39 90.617188 39.199219 89.917969 39.300781 C 88.316406 39.703125 87.117188 40.902344 86.617188 42.503906 C 86.214844 44.101562 86.617188 45.703125 87.714844 46.902344 L 120.527344 79.816406 L 107.824219 104.324219 L 83.113281 117.328125 L 50.304688 84.417969 C 50.105469 84.214844 49.902344 84.015625 49.703125 83.914062 C 49.605469 83.914062 49.605469 83.816406 49.503906 83.816406 C 49.304688 83.714844 49.105469 83.515625 48.804688 83.414062 C 48.605469 83.316406 48.304688 83.214844 48.105469 83.214844 C 48.003906 83.214844 48.003906 83.214844 47.902344 83.214844 C 47.703125 83.214844 47.402344 83.117188 47.203125 83.117188 C 47.203125 83.117188 47.203125 83.117188 47.101562 83.117188 C 47.003906 83.117188 46.804688 83.117188 46.703125 83.117188 C 46.601562 83.117188 46.601562 83.117188 46.503906 83.117188 C 46.304688 83.117188 46.101562 83.214844 45.902344 83.214844 C 44.300781 83.617188 43.101562 84.917969 42.703125 86.515625 C 37.5 108.324219 43.800781 130.730469 59.605469 146.535156 C 60.207031 147.335938 60.90625 147.9375 61.609375 148.636719 Z M 61.609375 148.636719 " fill-opacity="1" fill-rule="nonzero"/></g></svg>