<svg xmlns="http://www.w3.org/2000/svg" xmlns:xlink="http://www.w3.org/1999/xlink" width="500" zoomAndPan="magnify" viewBox="0 0 375 374.999991" height="500" preserveAspectRatio="xMidYMid meet" version="1.0"><defs><clipPath id="fb2ed41cf0"><path d="M 77 41.410156 L 332 41.410156 L 332 279 L 77 279 Z M 77 41.410156 " clip-rule="nonzero"/></clipPath><clipPath id="9abd3f68d8"><path d="M 43 48 L 154 48 L 154 333.910156 L 43 333.910156 Z M 43 48 " clip-rule="nonzero"/></clipPath></defs><g clip-path="url(#fb2ed41cf0)"><path fill="#010101" d="M 328.855469 164.070312 L 283.4375 118.59375 C 279.417969 114.570312 272.898438 114.570312 268.878906 118.59375 C 264.867188 122.617188 264.867188 129.140625 268.878906 133.164062 L 296.734375 161.050781 L 218.605469 161.050781 L 218.605469 55.945312 C 218.605469 52.082031 217.085938 48.449219 214.375 45.730469 C 211.691406 43.039062 207.972656 41.492188 204.167969 41.492188 L 77.527344 41.492188 L 150.453125 76.984375 C 164.660156 83.910156 173.839844 98.589844 173.839844 114.417969 L 173.839844 278.382812 L 204.167969 278.382812 C 207.96875 278.382812 211.6875 276.839844 214.371094 274.148438 C 217.085938 271.402344 218.601562 267.765625 218.601562 263.902344 L 218.601562 202.265625 L 202.601562 202.265625 C 196.917969 202.265625 192.308594 197.652344 192.308594 191.960938 C 192.308594 186.273438 196.914062 181.660156 202.601562 181.660156 L 296.730469 181.660156 L 268.875 209.542969 C 264.863281 213.566406 264.863281 220.089844 268.875 224.113281 C 270.886719 226.125 273.523438 227.132812 276.15625 227.132812 C 278.789062 227.132812 281.421875 226.125 283.433594 224.113281 L 328.855469 178.640625 C 330.789062 176.710938 331.871094 174.089844 331.871094 171.359375 C 331.871094 168.628906 330.789062 166 328.855469 164.070312 Z M 328.855469 164.070312 " fill-opacity="1" fill-rule="nonzero"/></g><g clip-path="url(#9abd3f68d8)"><path fill="#010101" d="M 141.449219 95.527344 L 45.167969 48.648438 C 43.90625 50.796875 43.105469 53.285156 43.105469 55.945312 L 43.105469 266.390625 C 43.105469 276.007812 48.710938 284.9375 57.34375 289.144531 L 148.417969 333.480469 C 149.480469 333.992188 150.679688 333.9375 151.679688 333.308594 C 152.652344 332.707031 153.25 331.589844 153.25 330.445312 L 153.25 114.417969 C 153.25 106.433594 148.621094 99.019531 141.449219 95.527344 Z M 134.84375 216.820312 C 134.84375 222.515625 130.242188 227.125 124.550781 227.125 C 118.859375 227.125 114.261719 222.515625 114.261719 216.820312 L 114.261719 181.703125 C 114.261719 176.007812 118.859375 171.402344 124.550781 171.402344 C 130.242188 171.402344 134.84375 176.007812 134.84375 181.703125 Z M 134.84375 216.820312 " fill-opacity="1" fill-rule="nonzero"/></g></svg>