<svg xmlns="http://www.w3.org/2000/svg" xmlns:xlink="http://www.w3.org/1999/xlink" width="500" zoomAndPan="magnify" viewBox="0 0 375 374.999991" height="500" preserveAspectRatio="xMidYMid meet" version="1.0"><defs><clipPath id="bddab2473f"><path d="M 39 101 L 337 101 L 337 309.75 L 39 309.75 Z M 39 101 " clip-rule="nonzero"/></clipPath></defs><g clip-path="url(#bddab2473f)"><path fill="#000000" d="M 135.378906 183.832031 C 104.140625 109.976562 212.839844 65.347656 242.734375 139.601562 C 266.019531 209.527344 167.816406 249.84375 135.378906 183.832031 Z M 270.40625 217.0625 C 333.058594 214.378906 325.09375 122.039062 262.851562 130.265625 C 264.15625 133.628906 265.234375 137.066406 266.078125 140.574219 C 266.921875 144.082031 267.527344 147.632812 267.894531 151.222656 C 268.261719 154.8125 268.386719 158.410156 268.269531 162.019531 C 268.152344 165.625 267.796875 169.207031 267.195312 172.765625 C 266.597656 176.324219 265.761719 179.828125 264.695312 183.273438 C 263.625 186.722656 262.328125 190.082031 260.804688 193.351562 C 259.285156 196.625 257.550781 199.78125 255.605469 202.820312 C 253.65625 205.859375 251.515625 208.753906 249.179688 211.503906 C 252.417969 213.335938 255.835938 214.722656 259.433594 215.664062 C 263.03125 216.605469 266.6875 217.074219 270.40625 217.0625 Z M 105.703125 217.0625 C 109.421875 217.074219 113.082031 216.605469 116.679688 215.664062 C 120.277344 214.722656 123.695312 213.335938 126.929688 211.503906 C 124.59375 208.753906 122.453125 205.859375 120.507812 202.820312 C 118.5625 199.78125 116.828125 196.625 115.304688 193.351562 C 113.785156 190.082031 112.488281 186.722656 111.417969 183.273438 C 110.347656 179.828125 109.515625 176.324219 108.914062 172.765625 C 108.316406 169.207031 107.957031 165.625 107.839844 162.019531 C 107.722656 158.410156 107.847656 154.8125 108.214844 151.222656 C 108.582031 147.632812 109.191406 144.082031 110.035156 140.574219 C 110.878906 137.066406 111.953125 133.628906 113.261719 130.265625 C 50.976562 122.046875 43.09375 214.40625 105.703125 217.0625 Z M 234.511719 239.511719 C 222.261719 239.558594 190.820312 239.476562 179.054688 239.511719 L 141.601562 239.511719 C 140.078125 239.511719 138.558594 239.585938 137.042969 239.730469 C 135.527344 239.878906 134.019531 240.101562 132.527344 240.398438 C 131.03125 240.695312 129.558594 241.0625 128.097656 241.503906 C 126.640625 241.945312 125.207031 242.453125 123.800781 243.035156 C 122.394531 243.617188 121.015625 244.265625 119.671875 244.984375 C 118.328125 245.699219 117.023438 246.480469 115.757812 247.324219 C 114.488281 248.171875 113.265625 249.074219 112.085938 250.039062 C 110.910156 251.003906 109.78125 252.023438 108.703125 253.101562 C 107.625 254.175781 106.601562 255.300781 105.632812 256.480469 C 104.664062 257.65625 103.757812 258.875 102.910156 260.140625 C 102.0625 261.40625 101.277344 262.710938 100.558594 264.050781 C 99.839844 265.394531 99.1875 266.769531 98.601562 268.175781 C 98.015625 269.582031 97.503906 271.011719 97.058594 272.46875 C 96.613281 273.925781 96.242188 275.402344 95.941406 276.894531 C 95.644531 278.390625 95.417969 279.894531 95.265625 281.410156 C 95.113281 282.925781 95.035156 284.445312 95.035156 285.96875 L 95.035156 309.304688 L 281.1875 309.304688 L 281.078125 285.96875 C 281.074219 284.445312 280.996094 282.925781 280.847656 281.410156 C 280.695312 279.894531 280.46875 278.390625 280.167969 276.894531 C 279.871094 275.402344 279.496094 273.925781 279.054688 272.46875 C 278.609375 271.011719 278.09375 269.582031 277.511719 268.175781 C 276.925781 266.769531 276.273438 265.394531 275.554688 264.050781 C 274.832031 262.710938 274.050781 261.40625 273.203125 260.140625 C 272.355469 258.875 271.445312 257.65625 270.480469 256.480469 C 269.511719 255.300781 268.488281 254.175781 267.410156 253.101562 C 266.332031 252.023438 265.203125 251.003906 264.023438 250.039062 C 262.847656 249.074219 261.625 248.171875 260.355469 247.324219 C 259.089844 246.480469 257.78125 245.699219 256.4375 244.984375 C 255.09375 244.265625 253.71875 243.617188 252.3125 243.035156 C 250.902344 242.453125 249.46875 241.945312 248.011719 241.503906 C 246.554688 241.0625 245.078125 240.695312 243.585938 240.398438 C 242.089844 240.101562 240.585938 239.878906 239.070312 239.730469 C 237.554688 239.585938 236.035156 239.511719 234.511719 239.511719 Z M 336.535156 285.96875 C 336.523438 284.335938 336.425781 282.710938 336.246094 281.089844 C 336.0625 279.472656 335.800781 277.863281 335.449219 276.273438 C 335.101562 274.679688 334.671875 273.109375 334.160156 271.558594 C 333.652344 270.011719 333.058594 268.496094 332.390625 267.007812 C 331.722656 265.523438 330.976562 264.074219 330.15625 262.664062 C 329.335938 261.253906 328.445312 259.890625 327.484375 258.574219 C 326.523438 257.257812 325.496094 255.996094 324.402344 254.785156 C 323.3125 253.574219 322.160156 252.425781 320.945312 251.335938 C 319.734375 250.246094 318.46875 249.222656 317.148438 248.261719 C 315.828125 247.304688 314.464844 246.417969 313.054688 245.601562 C 311.640625 244.785156 310.191406 244.042969 308.703125 243.378906 C 307.214844 242.714844 305.695312 242.125 304.148438 241.617188 C 302.597656 241.109375 301.027344 240.683594 299.433594 240.339844 C 297.839844 239.996094 296.230469 239.738281 294.609375 239.558594 C 292.992188 239.382812 291.363281 239.289062 289.734375 239.28125 C 288.105469 239.273438 286.476562 239.351562 284.855469 239.511719 C 287.78125 242.628906 290.390625 245.992188 292.675781 249.605469 C 294.964844 253.214844 296.894531 257.007812 298.464844 260.988281 C 300.035156 264.964844 301.21875 269.050781 302.011719 273.253906 C 302.808594 277.453125 303.199219 281.691406 303.191406 285.96875 L 303.414062 309.304688 L 336.644531 309.304688 Z M 39.578125 285.96875 L 39.464844 309.304688 L 72.808594 309.304688 L 72.808594 285.96875 C 72.808594 281.6875 73.210938 277.449219 74.015625 273.246094 C 74.820312 269.042969 76.015625 264.953125 77.59375 260.976562 C 79.171875 257 81.109375 253.207031 83.410156 249.597656 C 85.707031 245.988281 88.320312 242.625 91.257812 239.511719 C 89.632812 239.351562 88.007812 239.273438 86.375 239.28125 C 84.746094 239.289062 83.121094 239.382812 81.5 239.558594 C 79.878906 239.738281 78.273438 239.996094 76.679688 240.339844 C 75.085938 240.683594 73.511719 241.109375 71.964844 241.617188 C 70.414062 242.125 68.894531 242.714844 67.40625 243.378906 C 65.917969 244.042969 64.46875 244.785156 63.058594 245.601562 C 61.648438 246.417969 60.28125 247.304688 58.964844 248.261719 C 57.644531 249.222656 56.378906 250.246094 55.164062 251.335938 C 53.953125 252.425781 52.800781 253.574219 51.707031 254.785156 C 50.613281 255.996094 49.585938 257.257812 48.625 258.574219 C 47.664062 259.890625 46.773438 261.253906 45.953125 262.664062 C 45.132812 264.074219 44.390625 265.519531 43.71875 267.007812 C 43.050781 268.496094 42.460938 270.011719 41.949219 271.558594 C 41.4375 273.109375 41.007812 274.679688 40.660156 276.269531 C 40.3125 277.863281 40.046875 279.46875 39.867188 281.089844 C 39.6875 282.710938 39.589844 284.335938 39.578125 285.96875 Z M 39.578125 285.96875 " fill-opacity="1" fill-rule="nonzero"/></g></svg>